<?xml version="1.0" standalone="no"?>
<!DOCTYPE svg PUBLIC "-//W3C//DTD SVG 20010904//EN"
 "http://www.w3.org/TR/2001/REC-SVG-20010904/DTD/svg10.dtd">
<svg version="1.0" xmlns="http://www.w3.org/2000/svg"
 width="512.000000pt" height="512.000000pt" viewBox="0 0 512.000000 512.000000"
 preserveAspectRatio="xMidYMid meet">

<g transform="translate(0.000000,512.000000) scale(0.100000,-0.100000)"
fill="#000000" stroke="none">
<path d="M706 4549 c-2 -8 -48 -145 -100 -304 -53 -160 -96 -299 -96 -310 0
-11 29 -161 66 -334 36 -172 64 -314 62 -315 -46 -33 -78 -60 -78 -66 0 -4 25
-26 55 -49 30 -23 55 -45 55 -49 0 -5 -18 -21 -40 -38 -22 -16 -40 -33 -40
-37 0 -4 26 -32 58 -62 l57 -55 -33 -27 c-18 -16 -32 -32 -32 -36 0 -11 177
-217 182 -212 9 10 829 246 842 243 8 -2 142 105 299 237 209 176 286 246 286
262 1 14 -14 34 -42 56 -48 40 -1433 1067 -1472 1093 -20 13 -26 14 -29 3z"/>
<path d="M4283 4473 c-601 -440 -1403 -1042 -1412 -1061 -13 -28 -37 -5 297
-287 150 -126 279 -229 287 -227 8 2 192 -49 408 -112 215 -63 404 -117 418
-121 23 -6 35 4 112 94 48 55 87 103 87 108 0 4 -14 20 -32 36 l-33 27 58 54
c31 29 57 57 57 62 0 5 -21 24 -45 43 l-45 34 60 44 c33 25 60 48 60 53 0 6
-32 33 -78 66 -2 1 26 143 62 315 37 173 66 323 66 334 0 19 -194 613 -203
622 -2 2 -58 -36 -124 -84z"/>
<path d="M1605 2332 l190 -188 214 -63 c117 -34 214 -61 216 -59 3 4 73 398
77 433 l3 30 -360 17 c-198 9 -398 17 -445 17 l-85 1 190 -188z"/>
<path d="M3163 2502 l-343 -15 0 -29 c0 -27 70 -429 76 -436 4 -6 410 115 436
130 14 7 102 93 198 191 l173 177 -99 -2 c-55 0 -253 -8 -441 -16z"/>
<path d="M1296 1758 c53 -89 407 -608 414 -608 6 0 13 6 15 13 8 22 73 592 68
600 -2 4 -117 7 -254 7 -197 0 -249 -3 -243 -12z"/>
<path d="M3326 1762 c-5 -8 60 -577 69 -599 2 -7 9 -13 15 -13 7 0 361 519
414 608 6 9 -46 12 -243 12 -137 0 -252 -3 -255 -8z"/>
<path d="M2286 1441 c-20 -13 -36 -29 -36 -35 0 -6 -9 -87 -20 -180 -12 -93
-18 -171 -15 -174 3 -3 13 2 23 11 16 15 53 17 318 17 259 0 303 -2 322 -16
13 -9 26 -14 28 -11 3 3 -5 87 -17 186 l-22 182 -33 20 c-30 18 -52 20 -272
22 -238 2 -240 2 -276 -22z"/>
</g>
</svg>
