<svg width="250" height="217" viewBox="0 0 250 217" fill="none" xmlns="http://www.w3.org/2000/svg">
<path d="M125.4 216.4C109.4 216.4 94.6 213.8 81 208.6C67.6 203.2 55.9 195.7 45.9 186.1C36.1 176.3 28.4 164.9 22.8 151.9C17.2 138.9 14.4 124.6 14.4 109C14.4 93.4 17.2 79.1 22.8 66.1C28.4 53.1 36.2 41.8 46.2 32.2C56.2 22.4 67.9 14.9 81.3 9.69998C94.9 4.29999 109.7 1.6 125.7 1.6C141.9 1.6 156.8 4.4 170.4 10C184.2 15.4 195.9 23.5 205.5 34.3L186 53.2C178 44.8 169 38.6 159 34.6C149 30.4 138.3 28.3 126.9 28.3C115.1 28.3 104.1 30.3 93.9 34.3C83.9 38.3 75.2 43.9 67.8 51.1C60.4 58.3 54.6 66.9 50.4 76.9C46.4 86.7 44.4 97.4 44.4 109C44.4 120.6 46.4 131.4 50.4 141.4C54.6 151.2 60.4 159.7 67.8 166.9C75.2 174.1 83.9 179.7 93.9 183.7C104.1 187.7 115.1 189.7 126.9 189.7C138.3 189.7 149 187.7 159 183.7C169 179.5 178 173.1 186 164.5L205.5 183.4C195.9 194.2 184.2 202.4 170.4 208C156.8 213.6 141.8 216.4 125.4 216.4Z" fill="white"/>
<line x1="91" y1="66.2766" x2="126.35" y2="66.2766" stroke="#9FCE3A" stroke-width="20" stroke-linecap="round"/>
<line x1="91" y1="68" x2="91" y2="145.474" stroke="#9FCE3A" stroke-width="20" stroke-linecap="round"/>
<line x1="91" y1="102.829" x2="142.955" y2="102.829" stroke="#9FCE3A" stroke-width="20" stroke-linecap="round"/>
<line x1="91" y1="145.474" x2="159.56" y2="145.474" stroke="#9FCE3A" stroke-width="20" stroke-linecap="round"/>
</svg>
