<svg width="99" height="83" viewBox="0 0 99 83" fill="none" xmlns="http://www.w3.org/2000/svg">
<path d="M48.07 82.92C41.9367 82.92 36.2633 81.9233 31.05 79.93C25.9133 77.86 21.4283 74.985 17.595 71.305C13.8383 67.5483 10.8867 63.1783 8.74 58.195C6.59333 53.2117 5.52 47.73 5.52 41.75C5.52 35.77 6.59333 30.2883 8.74 25.305C10.8867 20.3217 13.8767 15.99 17.71 12.31C21.5433 8.55333 26.0283 5.67833 31.165 3.68499C36.3783 1.615 42.0517 0.58 48.185 0.58C54.395 0.58 60.1067 1.65333 65.32 3.8C70.61 5.87 75.095 8.97499 78.775 13.115L71.3 20.36C68.2333 17.14 64.7833 14.7633 60.95 13.23C57.1167 11.62 53.015 10.815 48.645 10.815C44.1217 10.815 39.905 11.5817 35.995 13.115C32.1617 14.6483 28.8267 16.795 25.99 19.555C23.1533 22.315 20.93 25.6117 19.32 29.445C17.7867 33.2017 17.02 37.3033 17.02 41.75C17.02 46.1967 17.7867 50.3367 19.32 54.17C20.93 57.9267 23.1533 61.185 25.99 63.945C28.8267 66.705 32.1617 68.8517 35.995 70.385C39.905 71.9183 44.1217 72.685 48.645 72.685C53.015 72.685 57.1167 71.9183 60.95 70.385C64.7833 68.775 68.2333 66.3217 71.3 63.025L78.775 70.27C75.095 74.41 70.61 77.5533 65.32 79.7C60.1067 81.8467 54.3567 82.92 48.07 82.92Z" fill="white"/>
<line x1="35" y1="29.3334" x2="50.9186" y2="29.3334" stroke="#9FCE3A" stroke-width="6" stroke-linecap="round"/>
<line x1="35" y1="30" x2="35" y2="52.4444" stroke="#9FCE3A" stroke-width="6" stroke-linecap="round"/>
<line x1="35" y1="40" x2="57.4941" y2="40" stroke="#9FCE3A" stroke-width="6" stroke-linecap="round"/>
<line x1="35" y1="52.4445" x2="64.0697" y2="52.4445" stroke="#9FCE3A" stroke-width="6" stroke-linecap="round"/>
</svg>
